<svg width="26" height="26" viewBox="0 0 26 26" fill="none" xmlns="http://www.w3.org/2000/svg">
<path d="M6.5 2.16669L3.25 6.50002V21.6667C3.25 22.2413 3.47827 22.7924 3.8846 23.1988C4.29093 23.6051 4.84203 23.8334 5.41667 23.8334H20.5833C21.158 23.8334 21.7091 23.6051 22.1154 23.1988C22.5217 22.7924 22.75 22.2413 22.75 21.6667V6.50002L19.5 2.16669H6.5Z" stroke="white" stroke-width="2" strokeLinecap="round" strokeLinejoin="round"/>
<path d="M3.25 6.5H22.75" stroke="white" stroke-width="2" strokeLinecap="round" strokeLinejoin="round"/>
<path d="M17.3334 10.8333C17.3334 11.9826 16.8768 13.0848 16.0641 13.8974C15.2515 14.7101 14.1493 15.1666 13 15.1666C11.8507 15.1666 10.7485 14.7101 9.93589 13.8974C9.12323 13.0848 8.66669 11.9826 8.66669 10.8333" stroke="white" stroke-width="2" strokeLinecap="round" strokeLinejoin="round"/>
</svg>
