<svg width="35" height="35" viewBox="0 0 35 35" fill="none" xmlns="http://www.w3.org/2000/svg">
<path d="M7.23332 9.56665L7.713 9.42557C7.65041 9.21278 7.45512 9.06665 7.23332 9.06665V9.56665ZM10.9667 21.4666L10.4942 21.6302L10.5 21.6471L10.5071 21.6636L10.9667 21.4666ZM8.98332 15.5167L8.5035 15.6578L8.5071 15.669L8.98332 15.5167ZM9.91665 18.4333L9.44031 18.5857L9.44416 18.5969L9.91665 18.4333ZM6.06665 10.0667H7.23332V9.06665H6.06665V10.0667ZM10.5071 21.6636C10.6667 22.036 10.8943 22.6494 11.1966 23.1425C11.4903 23.6217 11.9701 24.1833 12.7166 24.1833V23.1833C12.5299 23.1833 12.3096 23.0449 12.0492 22.62C11.7973 22.2089 11.6166 21.714 11.4262 21.2697L10.5071 21.6636ZM12.7166 24.1833H25.7833V23.1833H12.7166V24.1833ZM6.75363 9.70773L8.50363 15.6577L9.463 15.3756L7.713 9.42557L6.75363 9.70773ZM8.5071 15.669L9.44044 18.5857L10.3929 18.2809L9.45953 15.3643L8.5071 15.669ZM9.44416 18.5969L10.4942 21.6302L11.4391 21.3031L10.3891 18.2698L9.44416 18.5969Z" fill="white"/>
<path d="M12.8333 13.7667H10.2667L12.8333 21.1167H24.7333L26.8333 13.7667H24.7333" stroke="white" stroke-linejoin="round"/>
<path d="M14.8604 14.8167L15.7063 18.1933" stroke="white" stroke-linecap="round" stroke-linejoin="round"/>
<path d="M18.55 14.8167V18.3167" stroke="white" stroke-linecap="round" stroke-linejoin="round"/>
<path d="M22.1522 14.9345L21.3063 18.3111" stroke="white" stroke-linecap="round" stroke-linejoin="round"/>
<circle cx="16.3334" cy="26.6" r="1.16667" fill="white"/>
<circle cx="21.7" cy="26.6" r="1.16667" fill="white"/>
<circle cx="17.5" cy="17.5" r="17" stroke="white"/>
</svg>
