<svg width="24" height="23" viewBox="0 0 24 23" fill="none" xmlns="http://www.w3.org/2000/svg">
<path d="M16.6125 9.00842L7.98755 4.03467" stroke="#8E8E8E" stroke-linecap="round" stroke-linejoin="round"/>
<path d="M20.925 15.3334V7.66674C20.9247 7.33062 20.836 7.00051 20.6678 6.70952C20.4996 6.41852 20.2578 6.17687 19.9667 6.00882L13.2584 2.17549C12.967 2.00726 12.6365 1.9187 12.3 1.9187C11.9636 1.9187 11.6331 2.00726 11.3417 2.17549L4.63338 6.00882C4.3423 6.17687 4.10053 6.41852 3.93232 6.70952C3.76412 7.00051 3.67539 7.33062 3.67505 7.66674V15.3334C3.67539 15.6695 3.76412 15.9996 3.93232 16.2906C4.10053 16.5816 4.3423 16.8233 4.63338 16.9913L11.3417 20.8247C11.6331 20.9929 11.9636 21.0814 12.3 21.0814C12.6365 21.0814 12.967 20.9929 13.2584 20.8247L19.9667 16.9913C20.2578 16.8233 20.4996 16.5816 20.6678 16.2906C20.836 15.9996 20.9247 15.6695 20.925 15.3334Z" stroke="#8E8E8E" stroke-width="2" stroke-linecap="round" stroke-linejoin="round"/>
<path d="M3.93384 6.66992L12.3001 11.5095L20.6663 6.66992" stroke="#8E8E8E" stroke-linecap="round" stroke-linejoin="round"/>
<path d="M12.3 21.16V11.5" stroke="#8E8E8E" stroke-linecap="round" stroke-linejoin="round"/>
</svg>
