<svg width="23" height="23" viewBox="0 0 23 23" fill="none" xmlns="http://www.w3.org/2000/svg">
<path d="M14.1108 7.7225L7.66642 14.0554" stroke="#8E8E8E" stroke-width="2" stroke-linecap="round" stroke-linejoin="round"/>
<path d="M8.30551 7.66669C8.65836 7.66669 8.9444 7.38065 8.9444 7.0278C8.9444 6.67496 8.65836 6.38892 8.30551 6.38892C7.95267 6.38892 7.66663 6.67496 7.66663 7.0278C7.66663 7.38065 7.95267 7.66669 8.30551 7.66669Z" stroke="#8E8E8E" stroke-width="2" stroke-linecap="round" stroke-linejoin="round"/>
<path d="M14.6944 15.3334C15.0473 15.3334 15.3333 15.0474 15.3333 14.6946C15.3333 14.3417 15.0473 14.0557 14.6944 14.0557C14.3416 14.0557 14.0555 14.3417 14.0555 14.6946C14.0555 15.0474 14.3416 15.3334 14.6944 15.3334Z" stroke="#8E8E8E" stroke-width="2" stroke-linecap="round" stroke-linejoin="round"/>
<rect x="1.95837" y="1.95825" width="18.4444" height="18.4444" rx="4" stroke="#8E8E8E" stroke-width="2"/>
</svg>
